<?xml version="1.0" encoding="UTF-8" standalone="no"?><!DOCTYPE svg PUBLIC "-//W3C//DTD SVG 1.1//EN" "http://www.w3.org/Graphics/SVG/1.1/DTD/svg11.dtd"><svg width="100%" height="100%" viewBox="0 0 512 512" version="1.1" xmlns="http://www.w3.org/2000/svg" xmlns:xlink="http://www.w3.org/1999/xlink" xml:space="preserve" xmlns:serif="http://www.serif.com/" style="fill-rule:evenodd;clip-rule:evenodd;stroke-linejoin:round;stroke-miterlimit:2;"><path d="M320.8,268.08c-36.135,-34.22 -93.465,-34.22 -129.6,0l-78.16,73.92c-44.8,40.72 -12.48,118.56 48,115.52c32.8,-0.88 59.44,-17.68 94.88,-17.04c36.72,-0.64 64,14.16 96.96,17.04c59.44,1.36 90.16,-75.6 46,-115.52l-78.08,-73.92Zm-204.16,-51.36c-6,-29.28 -29.44,-63.28 -60,-57.28c-56.64,14.32 -32.64,135.04 22.72,135.36c31.36,-1.04 45.84,-37.44 37.28,-78.08Zm338.72,-57.28c-30.56,-6 -53.92,28 -60,57.28c-18.24,90.64 69.6,107.92 90.16,20c8.4,-37.68 -4.88,-71.68 -30.16,-77.28Zm-269.2,48.96c30.32,0 55.04,-34.56 55.04,-76.96c-2.96,-102.08 -107.12,-102.08 -110.16,0c0,42.4 24.72,76.96 55.12,76.96Zm139.68,0c30.4,0 55.12,-34.56 55.12,-76.96c-3.04,-102.08 -107.2,-102.08 -110.16,0c0,42.4 24.72,76.96 55.04,76.96Z" style="fill:url(#_Linear1);fill-rule:nonzero;"/><defs><linearGradient id="_Linear1" x1="0" y1="0" x2="1" y2="0" gradientUnits="userSpaceOnUse" gradientTransform="matrix(689.589,764.993,-764.993,689.589,186.12,-191.829)"><stop offset="0" style="stop-color:#14b3f4;stop-opacity:1"/><stop offset="0.33" style="stop-color:#575cdb;stop-opacity:1"/><stop offset="0.72" style="stop-color:#e84390;stop-opacity:1"/><stop offset="1" style="stop-color:#fa5249;stop-opacity:1"/></linearGradient></defs></svg>