<svg id="Capa_1" enable-background="new 0 0 497 497" height="512" viewBox="0 0 497 497" width="512" xmlns="http://www.w3.org/2000/svg"><g><path d="m110.16 367.396c-252.16-215.97-13.1-424.901 138.34-276.901 151.44-148 390.501 60.93 138.34 276.901z" fill="#ff8997"/><path d="m65.091 178.879c0-49.358 13.877-95.41 37.855-134.364-105.603 25.124-168.616 172.287 7.214 322.881h37.523c-50.7-46.394-82.592-113.661-82.592-188.517z" fill="#ff6f7f"/><path d="m386.84 165.456v201.94c-33.93 29.08-76.76 58.27-129.9 86.74-5.27 2.82-11.61 2.82-16.88 0-53.14-28.47-95.97-57.66-129.9-86.74v-201.94c0-9.55 3.87-18.2 10.13-24.45 6.25-6.26 14.9-10.13 24.45-10.13 19.1 0 34.59 15.48 34.59 34.58 0-9.55 3.87-18.2 10.13-24.45 6.26-6.26 14.9-10.13 24.45-10.13 19.11 0 34.59 15.48 34.59 34.58 0-9.55 3.87-18.2 10.13-24.45 6.26-6.26 14.91-10.13 24.46-10.13 19.1 0 34.58 15.48 34.58 34.58 0-9.55 3.87-18.2 10.13-24.45 6.26-6.26 14.91-10.13 24.46-10.13 19.1 0 34.58 15.48 34.58 34.58z" fill="#c7c5cb"/><g fill="#ffdcef"><path d="m307.325 294.474c-27.939 0-26.546-27.403-58.825-27.403s-30.886 27.403-58.825 27.403c-21.757 0-46.142 32.735-26.286 65.711s51.903 10.218 85.111 10.218 65.255 22.758 85.111-10.218c19.857-32.976-4.529-65.711-26.286-65.711z"/><ellipse cx="215.05" cy="218.168" rx="17.704" ry="22.455"/><ellipse cx="159.792" cy="248.089" rx="17.704" ry="22.455" transform="matrix(.971 -.241 .241 .971 -54.987 45.723)"/><ellipse cx="281.95" cy="218.168" rx="17.704" ry="22.455"/><ellipse cx="337.208" cy="248.089" rx="22.455" ry="17.704" transform="matrix(.241 -.971 .971 .241 15.288 515.717)"/></g><path d="m110.16 324.315v43.081c33.93 29.08 76.76 58.27 129.9 86.74 5.27 2.82 11.61 2.82 16.88 0 13.887-7.44 27.063-14.93 39.568-22.453-77.069-5.474-144.465-46.637-186.348-107.368z" fill="#b2b0bc"/></g></svg>