<svg id="paw" enable-background="new 0 0 300 300" height="512" viewBox="0 0 300 300" width="512" xmlns="http://www.w3.org/2000/svg" xmlns:xlink="http://www.w3.org/1999/xlink"><linearGradient id="SVGID_1_" gradientUnits="userSpaceOnUse" x1="57.235" x2="205.98" y1="228.004" y2="79.258"><stop offset="0" stop-color="#107eff"/><stop offset="1" stop-color="#8f16ff"/></linearGradient><g><path d="m212.406 92.607c3.633 8.979 3.188 20.035-1.223 30.338-1.508 3.523-3.492 6.869-5.902 9.965l-6.457 119.307c-.117 2.131-1.883 3.783-3.992 3.783-.074 0-.145-.002-.219-.006-2.207-.119-3.898-2.004-3.781-4.211l6.527-120.59c.047-.854.367-1.672.914-2.332 2.309-2.793 4.18-5.844 5.559-9.064 3.52-8.232 3.953-17.275 1.16-24.189-1.824-4.504-4.84-7.748-8.723-9.381-3-1.26-6.43-1.408-10.207-.443-1.23.314-2.535.027-3.52-.775s-1.531-2.025-1.469-3.293c.02-.346.051-.686.086-1.023.023-.227.055-.455.055-.691 0-15.439-9.066-28-20.211-28-6.578 0-12.785 4.541-16.602 12.146-1.352 2.703-5.797 2.703-7.148 0-3.815-7.607-10.023-12.148-16.601-12.148-11.145 0-20.211 12.561-20.211 28 0 .236.031.465.055.691.035.338.066.678.086 1.023.062 1.268-.484 2.49-1.469 3.293-.98.803-2.293 1.09-3.52.775-3.777-.963-7.207-.812-10.207.443-3.883 1.633-6.898 4.877-8.723 9.381-2.793 6.914-2.359 15.957 1.16 24.189 1.379 3.221 3.25 6.271 5.559 9.064.547.66.867 1.479.914 2.332l6.527 120.59c.117 2.207-1.574 4.092-3.781 4.211-2.027.121-4.09-1.572-4.211-3.777l-6.456-119.305c-2.41-3.096-4.395-6.441-5.902-9.965-4.41-10.303-4.855-21.359-1.223-30.338 2.637-6.523 7.145-11.279 13.035-13.756 3.191-1.342 6.609-1.889 10.242-1.646 1.121-18.549 13.305-33.205 28.125-33.205 7.719 0 14.934 3.943 20.176 10.809 5.242-6.866 12.457-10.809 20.176-10.809 14.82 0 27.004 14.656 28.125 33.205 3.641-.242 7.051.305 10.242 1.646 5.891 2.477 10.399 7.233 13.035 13.756zm-100.855 10.893c2.594 4.494 3.605 9.584 2.844 14.334-.809 5.057-3.496 9.135-7.566 11.486-2.316 1.338-4.879 1.971-7.48 1.971-6.516 0-13.301-3.967-17.242-10.791-2.594-4.494-3.605-9.584-2.844-14.334.809-5.057 3.496-9.135 7.566-11.486 8.116-4.692 19.206-.729 24.722 8.82zm-6.93 4c-2.465-4.268-6.527-6.824-10.215-6.824-1.262 0-2.48.301-3.578.934-1.945 1.121-3.246 3.189-3.668 5.822-.469 2.939.195 6.16 1.875 9.068 3.309 5.729 9.488 8.371 13.793 5.891 1.945-1.121 3.246-3.189 3.668-5.822.469-2.94-.195-6.161-1.875-9.069zm65.484-4c5.516-9.547 16.605-13.512 24.723-8.82 4.07 2.352 6.758 6.43 7.566 11.486.762 4.75-.25 9.84-2.844 14.334-3.941 6.822-10.727 10.791-17.242 10.791-2.602 0-5.164-.633-7.48-1.971-4.07-2.352-6.758-6.43-7.566-11.486-.762-4.75.25-9.84 2.843-14.334zm5.055 13.068c.422 2.633 1.723 4.701 3.668 5.822 4.301 2.477 10.484-.164 13.793-5.891 1.68-2.908 2.344-6.129 1.875-9.068-.422-2.633-1.723-4.701-3.668-5.822-1.098-.633-2.316-.934-3.578-.934-3.688 0-7.75 2.557-10.215 6.824-1.68 2.909-2.344 6.13-1.875 9.069zm51.668 55.432c0-2.209-1.791-4-4-4s-4 1.791-4 4 1.791 4 4 4 4-1.791 4-4zm-172-12c-2.209 0-4 1.791-4 4s1.791 4 4 4 4-1.791 4-4-1.791-4-4-4zm12.484-95.172-2.828-2.828 2.828-2.828c1.562-1.562 1.562-4.094 0-5.656s-4.094-1.562-5.656 0l-2.828 2.828-2.828-2.829c-1.562-1.562-4.094-1.562-5.656 0s-1.562 4.094 0 5.656l2.828 2.829-2.828 2.828c-1.562 1.562-1.562 4.094 0 5.656.781.781 1.805 1.172 2.828 1.172s2.047-.391 2.828-1.172l2.828-2.828 2.828 2.828c.781.781 1.805 1.172 2.828 1.172s2.047-.391 2.828-1.172c1.563-1.562 1.563-4.093 0-5.656zm183.516 145.172c0 7.719-6.281 14-14 14s-14-6.281-14-14 6.281-14 14-14 14 6.281 14 14zm-8 0c0-3.309-2.691-6-6-6s-6 2.691-6 6 2.691 6 6 6 6-2.692 6-6zm-60-46c0 11.027-8.973 20-20 20-3.441 0-6.777-.893-9.777-2.604-7.664 3.418-16.781 3.418-24.445 0-3 1.711-6.336 2.604-9.777 2.604-11.027 0-20-8.973-20-20 0-8.5 5.48-16.062 13.348-18.848 3.835-12.39 15.514-21.152 28.651-21.152s24.816 8.762 28.652 21.152c7.868 2.785 13.348 10.348 13.348 18.848zm-76-90c0-10.094 6.148-18 14-18s14 7.906 14 18-6.148 18-14 18-14-7.906-14-18zm8 0c0 5.893 3.16 10 6 10s6-4.107 6-10-3.16-10-6-10-6 4.107-6 10zm60 0c0 10.094-6.148 18-14 18s-14-7.906-14-18 6.148-18 14-18 14 7.906 14 18zm-8 0c0-5.893-3.16-10-6-10s-6 4.107-6 10 3.16 10 6 10 6-4.108 6-10z" fill="url(#SVGID_1_)"/></g></svg>